<?xml version="1.0" encoding="utf-8"?>
<!-- Generator: Adobe Illustrator 26.0.1, SVG Export Plug-In . SVG Version: 6.00 Build 0)  -->
<svg version="1.1" id="Layer_1" xmlns="http://www.w3.org/2000/svg" xmlns:xlink="http://www.w3.org/1999/xlink" x="0px" y="0px"
	 viewBox="0 0 100 29" style="enable-background:new 0 0 100 29;" xml:space="preserve">
<style type="text/css">
	.st0{fill:#0049FF;}
	.st1{fill:#47C100;}
	.st2{fill:#5900C1;}
	.st3{fill:#EF141F;}
	.st4{fill:#FFB600;}
	.st5{enable-background:new    ;}
</style>
<g>
	<g>
		<path class="st0" d="M2.9,20c-0.4,0-0.8-0.1-1.2-0.3c-0.4-0.2-0.7-0.5-0.9-0.9S0.5,18,0.5,17.6c0-0.4,1.2-3,3.5-7.7
			s3.6-7.3,3.8-7.6C8,2,8.3,1.6,8.7,1.4s0.8-0.3,1.2-0.3s0.8,0.1,1.2,0.3s0.7,0.5,0.9,0.9s1.5,2.9,3.9,7.6s3.5,7.3,3.5,7.7
			s-0.1,0.8-0.3,1.2c-0.2,0.4-0.5,0.7-0.9,0.9C17.8,19.9,17.4,20,17,20H2.9z M13.1,15.3L9.9,8.6l-3.2,6.6L13.1,15.3L13.1,15.3z"/>
		<path class="st1" d="M24.4,1.2c0.9,0.1,1.5,0.4,2.1,1l7.1,9v-8c0-1.4,0.7-2,2-2.1c1.8,0,2.7,0.7,2.7,2.1v14.7c0,1.4-0.9,2-2.7,2.1
			c-0.8,0-1.5-0.3-2-1l-7.1-9v7.9c0,1.4-0.7,2-2.1,2.1c-1.8,0-2.7-0.7-2.7-2.1V3.2C21.7,1.9,22.6,1.2,24.4,1.2z"/>
		<path class="st2" d="M50,1.2h4.7C56.2,1.2,57,2,57,3.6s-0.8,2.3-2.3,2.3H50c-0.8,0-1.6,0.2-2.3,0.6c-0.8,0.4-1.3,1-1.8,1.7
			c-0.4,0.8-0.6,1.5-0.6,2.4c0,0.8,0.2,1.6,0.6,2.3s1,1.3,1.7,1.7c0.8,0.4,1.5,0.6,2.4,0.6s1.6-0.2,2.5-0.6c0.8-0.4,1.4-1,1.8-1.8
			h-2c-1.6,0-2.4-0.8-2.4-2.3c0-1.6,0.8-2.4,2.4-2.4H57c1.6,0,2.4,0.8,2.4,2.4s-0.4,3.2-1.2,4.7s-2,2.7-3.5,3.5S51.6,20,50,20
			s-3.2-0.4-4.7-1.2c-1.5-0.8-2.7-2-3.5-3.5s-1.2-3.1-1.2-4.7s0.4-3.2,1.3-4.7c0.8-1.5,2-2.7,3.5-3.5S48.4,1.2,50,1.2z"/>
		<path class="st3" d="M64.5,1.2c0.9,0.1,1.5,0.4,2.1,1l7.1,9v-8c0-1.4,0.7-2,2-2.1c1.8,0,2.7,0.7,2.7,2.1v14.7c0,1.4-0.9,2-2.7,2.1
			c-0.8,0-1.5-0.3-2-1l-7.1-9v7.9c0,1.4-0.7,2-2.1,2.1c-1.8,0-2.7-0.7-2.7-2.1V3.2C61.8,1.9,62.7,1.2,64.5,1.2z"/>
		<path class="st4" d="M83,20c-0.4,0-0.8-0.1-1.2-0.3c-0.4-0.2-0.7-0.5-0.9-0.9c-0.2-0.4-0.3-0.8-0.3-1.2c0-0.4,1.2-3,3.5-7.7
			s3.6-7.3,3.8-7.6c0.2-0.4,0.5-0.7,0.9-0.9s0.8-0.3,1.2-0.3c0.4,0,0.8,0.1,1.2,0.3s0.7,0.5,0.9,0.9c0.2,0.4,1.5,2.9,3.9,7.6
			s3.5,7.3,3.5,7.7s-0.1,0.8-0.3,1.2c-0.2,0.4-0.5,0.7-0.9,0.9c-0.4,0.2-0.8,0.3-1.2,0.3H83z M93.3,15.3l-3.2-6.6l-3.2,6.6
			C86.9,15.3,93.3,15.3,93.3,15.3z"/>
	</g>
	<g class="st5">
		<path class="st2" d="M31.1,20.8c0.1,0,0.2,0,0.3,0.1c0.1,0,0.1,0.1,0.2,0.2c0.1,0.1,0.1,0.1,0.1,0.2c0,0.1,0,0.1,0,0.2
			c0,0-0.1,0.1-0.2,0.4c-0.1,0.2-0.3,0.5-0.4,0.9s-0.4,0.8-0.6,1.2c-0.2,0.4-0.4,0.9-0.6,1.3s-0.3,0.8-0.4,1.1
			c-0.1,0.3-0.2,0.6-0.2,0.8c0,0,0,0.1,0,0.1c0,0-0.1,0-0.1,0c-0.1,0-0.1,0-0.2-0.1c-0.1,0-0.1-0.1-0.2-0.2s-0.1-0.1-0.1-0.2
			s-0.1-0.2-0.1-0.3c0-0.1,0-0.3,0.1-0.6s0.2-0.6,0.4-1c-0.2,0-0.4,0-0.6,0c-0.2,0-0.4,0-0.7,0.1c-0.2,0.3-0.5,0.5-0.7,0.8
			s-0.5,0.5-0.7,0.7s-0.4,0.3-0.6,0.4c-0.2,0.1-0.3,0.2-0.4,0.2c-0.1,0-0.2,0-0.3-0.1c-0.1-0.1-0.1-0.1-0.1-0.2c0-0.1,0-0.2,0-0.2
			c0-0.1,0-0.1,0.1-0.1c0,0,0,0,0,0s0,0,0,0c0,0,0,0,0,0c0,0,0,0,0.1,0c0.1,0,0.2,0,0.3-0.1s0.3-0.2,0.4-0.3s0.3-0.3,0.5-0.5
			c0.2-0.2,0.4-0.4,0.6-0.6c0,0-0.1,0-0.1,0s-0.1,0-0.1,0c-0.1,0-0.1,0-0.2-0.1c-0.1-0.1-0.1-0.1-0.1-0.2c0-0.1,0-0.2,0-0.2
			c0-0.1,0-0.1,0.1-0.1c0,0,0,0,0.1,0c0,0,0.1,0,0.1,0c0.1,0,0.1,0,0.2,0s0.2,0,0.4,0h0.2c0.2-0.3,0.5-0.6,0.7-0.8
			c0.2-0.3,0.5-0.6,0.7-0.8c0.2-0.3,0.4-0.5,0.6-0.8c0.2-0.2,0.4-0.5,0.5-0.6c0.1-0.2,0.3-0.3,0.3-0.4c0.1-0.1,0.1-0.2,0.1-0.2
			c0-0.1,0.1-0.1,0.2-0.1C31,20.8,31.1,20.8,31.1,20.8C31.1,20.8,31.1,20.8,31.1,20.8z M28.3,24.6h1c0.1-0.2,0.2-0.5,0.3-0.8
			c0.1-0.3,0.2-0.5,0.3-0.8c0.1-0.3,0.2-0.5,0.3-0.7c0.1-0.2,0.2-0.4,0.3-0.6c-0.1,0.2-0.3,0.4-0.5,0.6s-0.4,0.5-0.6,0.7
			s-0.4,0.5-0.6,0.8C28.8,24.1,28.5,24.3,28.3,24.6z"/>
		<path class="st2" d="M34.4,24.6C34.5,24.6,34.5,24.6,34.4,24.6c0.1,0,0.2,0,0.2,0c0,0,0,0.1,0,0.1c-0.2,0.4-0.5,0.7-0.8,0.9
			C33.6,25.9,33.3,26,33,26c0,0-0.1,0-0.1,0c0,0-0.1,0-0.1,0c-0.2,0.2-0.4,0.3-0.6,0.5s-0.4,0.2-0.6,0.2c-0.1,0-0.2,0-0.3-0.1
			c-0.1-0.1-0.2-0.1-0.2-0.2c-0.1,0.2-0.2,0.5-0.3,0.7c-0.1,0.2-0.2,0.4-0.2,0.6c-0.1,0.2-0.1,0.3-0.1,0.4c0,0.1-0.1,0.2-0.1,0.2
			c0,0.1,0,0.1-0.1,0.1c-0.1,0-0.1,0-0.2-0.1c-0.1,0-0.1-0.1-0.2-0.1c-0.1-0.1-0.1-0.1-0.2-0.2s-0.1-0.1-0.1-0.2
			c0-0.1,0-0.3,0.1-0.5s0.2-0.6,0.3-0.9c0.1-0.3,0.3-0.7,0.4-1.1c0.2-0.4,0.3-0.7,0.5-1c0.2-0.3,0.3-0.6,0.4-0.8
			c0.1-0.2,0.2-0.3,0.3-0.3c0.1,0,0.2,0,0.2,0.1c0.1,0,0.2,0.1,0.2,0.2c0.1,0.1,0.1,0.1,0.1,0.2c0,0.1,0,0.1,0,0.2
			c-0.1,0.1-0.2,0.2-0.3,0.5c0.1-0.1,0.2-0.3,0.3-0.4s0.2-0.2,0.3-0.3c0.1-0.1,0.2-0.2,0.3-0.2s0.2-0.1,0.2-0.1c0.1,0,0.2,0,0.3,0.1
			c0.1,0.1,0.2,0.1,0.2,0.2s0.1,0.2,0.2,0.2S34,24,34,24c0,0.2-0.1,0.4-0.2,0.7c-0.1,0.3-0.3,0.5-0.5,0.8h0c0.2,0,0.4-0.1,0.6-0.2
			C34.1,25.1,34.2,24.9,34.4,24.6z M31.5,26.1c0.1,0,0.2,0,0.3-0.1c0.1-0.1,0.2-0.2,0.4-0.3c0-0.1,0-0.1,0-0.1c0-0.1,0-0.2,0.1-0.3
			c0.1-0.1,0.2-0.1,0.2-0.1c0.1,0,0.1,0,0.1,0c0.1-0.1,0.2-0.3,0.3-0.4c0.1-0.1,0.2-0.3,0.2-0.4c0.1-0.1,0.1-0.2,0.2-0.3
			c0-0.1,0.1-0.2,0.1-0.2c0-0.1,0-0.1,0-0.1c0,0-0.1,0-0.1,0c-0.1,0-0.2,0.1-0.3,0.2c-0.2,0.2-0.4,0.3-0.6,0.6
			c-0.2,0.2-0.4,0.5-0.6,0.8c-0.2,0.3-0.4,0.5-0.5,0.8C31.3,26.1,31.4,26.1,31.5,26.1z"/>
		<path class="st2" d="M37.8,24.6C37.8,24.6,37.8,24.6,37.8,24.6c0.1,0,0.2,0,0.2,0c0,0,0,0.1,0,0.1c0,0,0,0.1-0.1,0.2
			c-0.1,0.1-0.1,0.2-0.2,0.3c-0.1,0.1-0.2,0.3-0.3,0.4s-0.2,0.3-0.4,0.4c-0.1,0.1-0.2,0.2-0.4,0.3c-0.1,0.1-0.2,0.1-0.3,0.1
			c0,0-0.1,0-0.2,0c-0.1,0-0.1-0.1-0.2-0.1c-0.1,0-0.1-0.1-0.2-0.2c0-0.1-0.1-0.1-0.1-0.2c0-0.1,0-0.3,0.1-0.5
			c0.1-0.2,0.2-0.5,0.3-0.8c0.1-0.3,0.3-0.6,0.4-1c-0.2,0.1-0.4,0.3-0.5,0.5c-0.2,0.2-0.4,0.5-0.5,0.8c-0.2,0.3-0.3,0.5-0.4,0.8
			s-0.2,0.4-0.3,0.5c0,0,0,0.1,0,0.1c0,0,0,0,0,0.1c0,0,0,0.1-0.1,0.1c0,0-0.1,0-0.2,0c-0.1,0-0.1-0.1-0.2-0.1s-0.1-0.1-0.2-0.2
			C34,26.1,34,26,34,26c0-0.1,0-0.2,0.1-0.3s0.1-0.3,0.2-0.5c0.1-0.2,0.2-0.4,0.2-0.6c0.1-0.2,0.2-0.4,0.2-0.5s0.1-0.3,0.2-0.4
			c0-0.1,0.1-0.2,0.1-0.3c0,0,0-0.1,0.1-0.1c0,0,0.1,0,0.2,0.1c0.1,0,0.1,0.1,0.2,0.2c0.1,0.1,0.1,0.1,0.2,0.2
			c0,0.1,0.1,0.1,0.1,0.2c0,0,0,0.2-0.1,0.4c0.1-0.1,0.2-0.3,0.3-0.4s0.2-0.2,0.3-0.3c0.1-0.1,0.2-0.2,0.3-0.2
			c0.1-0.1,0.2-0.1,0.2-0.1c0,0,0.1,0,0.2,0.1c0.1,0,0.1,0.1,0.2,0.1c0.1,0.1,0.1,0.1,0.2,0.2c0,0.1,0.1,0.1,0.1,0.2
			c0,0,0,0.1-0.1,0.2s-0.1,0.2-0.1,0.3c-0.1,0.1-0.1,0.3-0.2,0.4c-0.1,0.1-0.1,0.3-0.2,0.4c-0.1,0.1-0.1,0.2-0.1,0.3
			c0,0.1-0.1,0.2-0.1,0.2c0,0.1,0,0.1,0,0.1c0.1,0,0.2-0.1,0.3-0.2c0.1-0.1,0.2-0.2,0.4-0.3c0.1-0.1,0.2-0.2,0.3-0.4
			S37.8,24.7,37.8,24.6z"/>
		<path class="st2" d="M40.3,24.6C40.3,24.6,40.4,24.6,40.3,24.6c0.1,0,0.2,0,0.2,0c0,0,0,0.1,0,0.1c-0.1,0.2-0.3,0.3-0.4,0.5
			s-0.3,0.4-0.5,0.6c-0.2,0.2-0.4,0.3-0.6,0.4s-0.4,0.2-0.6,0.2c0,0-0.1,0-0.2-0.1s-0.2-0.1-0.3-0.2c-0.1-0.1-0.2-0.2-0.3-0.3
			c-0.1-0.1-0.1-0.2-0.1-0.4c0-0.2,0.1-0.4,0.2-0.7c0.1-0.3,0.3-0.5,0.5-0.8c0.2-0.2,0.4-0.4,0.6-0.6s0.3-0.3,0.4-0.3
			c0.1,0,0.2,0,0.3,0.1s0.2,0.1,0.3,0.2s0.2,0.2,0.2,0.3c0.1,0.1,0.1,0.2,0.1,0.2c0,0.1-0.1,0.2-0.2,0.4c-0.1,0.2-0.2,0.3-0.4,0.4
			c-0.1,0.1-0.3,0.3-0.5,0.4c-0.2,0.1-0.3,0.1-0.4,0.1c-0.1,0-0.1,0-0.2,0c-0.1,0.2-0.1,0.3-0.1,0.4c0,0.1,0.1,0.2,0.2,0.2
			c0.1,0,0.3,0,0.5-0.1s0.3-0.2,0.5-0.3c0.2-0.1,0.3-0.3,0.5-0.4C40,24.9,40.2,24.8,40.3,24.6z M39.5,24c-0.1,0-0.2,0-0.3,0.1
			c-0.1,0.1-0.2,0.2-0.3,0.3c-0.1,0.1-0.2,0.2-0.3,0.4s-0.2,0.3-0.2,0.4c0.1,0,0.2-0.1,0.4-0.2c0.1-0.1,0.2-0.2,0.4-0.3
			c0.1-0.1,0.2-0.2,0.3-0.3C39.5,24.2,39.6,24.1,39.5,24C39.6,24,39.6,24,39.5,24z"/>
		<path class="st2" d="M47,22.2c0,0.2-0.1,0.4-0.2,0.6c-0.1,0.2-0.3,0.4-0.5,0.6c-0.2,0.2-0.4,0.4-0.7,0.6s-0.5,0.3-0.7,0.5
			c0.2,0.1,0.3,0.3,0.4,0.4s0.2,0.4,0.2,0.7c0,0.2-0.1,0.5-0.2,0.7c-0.1,0.2-0.3,0.4-0.5,0.5c-0.2,0.1-0.4,0.3-0.7,0.3
			s-0.5,0.1-0.8,0.1c-0.3,0-0.6-0.1-0.8-0.3s-0.3-0.4-0.3-0.7c0-0.1,0-0.3,0.1-0.5c0.1-0.2,0.2-0.5,0.3-0.8c0.1-0.3,0.3-0.6,0.4-1
			c0.2-0.3,0.3-0.7,0.4-0.9c0.1-0.3,0.3-0.5,0.4-0.7C44,22.1,44,22,44.1,22c0.1,0,0.2,0,0.3,0.1c0.1,0,0.1,0.1,0.2,0.2
			c0.1,0.1,0.1,0.1,0.1,0.2c0,0.1,0,0.1,0,0.2c0,0,0,0.1-0.1,0.1c0,0.1-0.1,0.2-0.2,0.3c-0.1,0.1-0.2,0.3-0.2,0.5
			c-0.1,0.2-0.2,0.4-0.3,0.6c0.2-0.1,0.5-0.2,0.8-0.3c0.3-0.2,0.6-0.3,0.9-0.5c0.3-0.2,0.5-0.4,0.7-0.6c0.2-0.2,0.3-0.4,0.3-0.6
			c0-0.2,0-0.3-0.1-0.4c-0.1-0.1-0.2-0.2-0.3-0.2c-0.1,0-0.2-0.1-0.3-0.1s-0.2,0-0.2,0c-0.3,0-0.5,0-0.8,0.1
			c-0.3,0.1-0.5,0.2-0.8,0.3c-0.3,0.1-0.5,0.3-0.7,0.5s-0.4,0.3-0.6,0.5c-0.2,0.2-0.3,0.3-0.4,0.5c-0.1,0.2-0.1,0.3-0.1,0.4
			c0,0.1,0,0.2,0,0.2c0,0,0,0.1,0.1,0.1c0,0,0,0,0.1,0.1c0,0,0,0,0,0.1c0,0.1,0,0.1-0.1,0.1c-0.1,0-0.1,0-0.2,0
			c-0.1,0-0.1-0.1-0.2-0.1c-0.1-0.1-0.1-0.2-0.2-0.3c-0.1-0.1-0.1-0.2-0.1-0.4c0-0.2,0.1-0.5,0.3-0.8c0.2-0.3,0.5-0.6,0.9-0.9
			c0.4-0.3,0.8-0.5,1.2-0.7c0.4-0.2,0.9-0.3,1.4-0.3c0.3,0,0.6,0.1,0.8,0.2s0.4,0.2,0.5,0.4c0.1,0.2,0.2,0.3,0.3,0.5
			S47,22.1,47,22.2z M44.6,24.9c-0.2,0-0.3,0-0.5,0.1C44,25,43.9,25,43.8,25c-0.1,0-0.1,0-0.1-0.1s-0.1-0.1-0.1-0.2
			c-0.2,0.3-0.3,0.6-0.4,0.9C43.1,26,43,26.2,43,26.4c0,0.1,0,0.1,0,0.2s0.1,0.1,0.1,0.1c0.3,0,0.6,0,0.8-0.1
			c0.2-0.1,0.5-0.2,0.6-0.3c0.2-0.1,0.3-0.3,0.4-0.4c0.1-0.2,0.2-0.3,0.2-0.4c0-0.1-0.1-0.2-0.2-0.3S44.8,24.9,44.6,24.9z"/>
		<path class="st2" d="M49.6,24.6C49.7,24.6,49.7,24.6,49.6,24.6c0.1,0,0.2,0,0.2,0c0,0,0,0.1,0,0.1c-0.1,0.2-0.3,0.3-0.4,0.5
			s-0.3,0.4-0.4,0.6s-0.3,0.3-0.5,0.4c-0.2,0.1-0.3,0.2-0.4,0.2c0,0-0.1,0-0.1,0s-0.1-0.1-0.2-0.1s-0.1-0.1-0.2-0.2
			c0-0.1-0.1-0.1-0.1-0.2c0-0.1,0-0.2,0.1-0.3c0.1-0.1,0.1-0.3,0.2-0.4c-0.1,0.2-0.2,0.3-0.4,0.5c-0.1,0.2-0.3,0.3-0.4,0.4
			c-0.1,0.1-0.3,0.2-0.4,0.3c-0.1,0.1-0.2,0.1-0.3,0.1c-0.1,0-0.1,0-0.2-0.1c-0.1,0-0.1-0.1-0.2-0.2c0-0.1-0.1-0.1-0.1-0.2
			c0-0.1,0-0.2,0-0.2c0-0.1,0-0.2,0.1-0.4c0.1-0.2,0.2-0.3,0.3-0.5c0.1-0.2,0.2-0.4,0.4-0.6s0.3-0.4,0.4-0.5
			c0.1-0.2,0.3-0.3,0.4-0.4c0.1-0.1,0.3-0.1,0.4-0.1c0.1,0,0.3,0,0.4,0.1s0.2,0.2,0.3,0.3c0.1,0.1,0.2,0.2,0.3,0.3s0.1,0.2,0.1,0.3
			c0,0,0,0,0,0v0c0,0,0,0.1-0.1,0.2c-0.1,0.1-0.1,0.3-0.2,0.4s-0.1,0.3-0.2,0.4c-0.1,0.1-0.1,0.2-0.1,0.3c0,0,0,0.1,0.1,0.1
			c0.1,0,0.2,0,0.2-0.1s0.2-0.1,0.3-0.2c0.1-0.1,0.2-0.2,0.3-0.3C49.4,24.9,49.5,24.8,49.6,24.6z M46.8,25.7c0,0,0.1,0,0.2-0.1
			c0.1-0.1,0.2-0.2,0.3-0.3c0.1-0.1,0.2-0.2,0.3-0.4c0.1-0.1,0.2-0.3,0.3-0.4c0.1-0.1,0.2-0.2,0.3-0.3s0.1-0.2,0.1-0.2
			c0-0.1,0-0.1,0-0.2c0-0.1-0.1-0.1-0.1-0.1c-0.1,0-0.1,0-0.2,0.1s-0.2,0.2-0.3,0.3c-0.1,0.1-0.2,0.2-0.3,0.4
			c-0.1,0.1-0.2,0.3-0.3,0.4c-0.1,0.1-0.2,0.3-0.2,0.4S46.7,25.6,46.8,25.7C46.7,25.7,46.7,25.7,46.8,25.7z"/>
		<path class="st2" d="M50.2,26.5c-0.1,0-0.1,0-0.2-0.1c-0.1,0-0.2-0.1-0.3-0.2c-0.1-0.1-0.2-0.2-0.3-0.3s-0.1-0.2-0.1-0.4
			c0-0.2,0.1-0.4,0.2-0.7c0.1-0.3,0.3-0.5,0.4-0.8s0.3-0.5,0.5-0.6c0.2-0.2,0.4-0.3,0.5-0.3c0.1,0,0.2,0,0.3,0.1
			c0.1,0,0.2,0.1,0.3,0.2s0.1,0.1,0.2,0.2s0.1,0.1,0.1,0.2c0,0.1,0,0.2-0.1,0.3c0,0.1-0.1,0.2-0.2,0.3c-0.1,0.1-0.1,0.2-0.2,0.2
			s-0.1,0.1-0.1,0.1c-0.1,0-0.1,0-0.1,0c0,0-0.1-0.1-0.1-0.1c0,0,0-0.1,0-0.1c0,0,0,0,0.1,0s0.1,0,0.2-0.1c0.1-0.1,0.1-0.2,0.2-0.3
			s0.1-0.2,0.1-0.3s0-0.1-0.1-0.1c-0.1,0-0.2,0.1-0.3,0.2c-0.1,0.1-0.3,0.3-0.4,0.5c-0.1,0.2-0.2,0.4-0.3,0.7
			c-0.1,0.2-0.1,0.5-0.1,0.7c0,0.1,0.1,0.2,0.2,0.2c0.2,0,0.3,0,0.5-0.1s0.3-0.2,0.5-0.3c0.2-0.1,0.3-0.3,0.5-0.4
			c0.1-0.2,0.3-0.3,0.4-0.5c0,0,0.1,0,0.1,0s0.1,0,0.1,0.1c0,0,0,0.1,0,0.1c-0.1,0.2-0.3,0.3-0.4,0.5s-0.3,0.4-0.5,0.6
			c-0.2,0.2-0.4,0.3-0.6,0.4C50.6,26.4,50.4,26.5,50.2,26.5z"/>
		<path class="st2" d="M55.5,24.6C55.6,24.6,55.6,24.6,55.5,24.6c0.1,0,0.2,0,0.2,0c0,0,0,0.1,0,0.1c0,0,0,0.1-0.1,0.2
			c-0.1,0.1-0.1,0.2-0.2,0.3c-0.1,0.1-0.2,0.3-0.3,0.4s-0.2,0.3-0.4,0.4s-0.2,0.2-0.4,0.3c-0.1,0.1-0.2,0.1-0.3,0.1c0,0-0.1,0-0.2,0
			c-0.1,0-0.1-0.1-0.2-0.1c-0.1-0.1-0.1-0.1-0.2-0.2c0-0.1-0.1-0.1-0.1-0.2c0-0.1,0-0.1,0-0.2s0.1-0.2,0.1-0.3s0.1-0.2,0.1-0.4
			c0.1-0.1,0.1-0.3,0.2-0.4c0.1-0.3,0.3-0.6,0.4-1c-0.1,0.1-0.3,0.2-0.4,0.4c-0.1,0.2-0.3,0.3-0.4,0.5c-0.1,0.2-0.3,0.4-0.4,0.6
			c-0.1,0.2-0.2,0.4-0.3,0.6c-0.1,0.2-0.2,0.3-0.2,0.4s-0.1,0.2-0.1,0.3c0,0.1,0,0.1-0.1,0.1c0,0-0.1,0-0.2-0.1S52,26.4,52,26.3
			s-0.1-0.1-0.2-0.2c0-0.1-0.1-0.1-0.1-0.2c0-0.1,0-0.3,0.1-0.5c0.1-0.3,0.2-0.5,0.3-0.9c0.1-0.3,0.3-0.7,0.4-1.1
			c0.2-0.4,0.3-0.7,0.5-1c0.2-0.3,0.3-0.6,0.4-0.8s0.2-0.3,0.3-0.3c0.1,0,0.2,0,0.2,0.1s0.2,0.1,0.2,0.2c0.1,0.1,0.1,0.1,0.1,0.2
			c0,0.1,0,0.1,0,0.2c-0.1,0.1-0.2,0.2-0.2,0.3s-0.2,0.3-0.3,0.5c-0.1,0.2-0.2,0.4-0.3,0.7s-0.2,0.5-0.3,0.7
			c0.1-0.1,0.2-0.3,0.3-0.4c0.1-0.1,0.2-0.2,0.3-0.3c0.1-0.1,0.2-0.2,0.3-0.2c0.1-0.1,0.2-0.1,0.2-0.1c0,0,0.1,0,0.2,0.1
			c0.1,0,0.1,0.1,0.2,0.1c0.1,0.1,0.1,0.1,0.2,0.2s0.1,0.1,0.1,0.2c0,0,0,0.1-0.1,0.2s-0.1,0.2-0.1,0.3s-0.1,0.2-0.2,0.4
			c-0.1,0.1-0.1,0.3-0.2,0.4c-0.1,0.1-0.1,0.2-0.1,0.3s-0.1,0.2-0.1,0.2c0,0,0,0.1,0.1,0.1c0.1,0,0.2-0.1,0.3-0.2
			c0.1-0.1,0.2-0.2,0.4-0.3s0.2-0.3,0.3-0.4S55.5,24.7,55.5,24.6z"/>
		<path class="st2" d="M59,24.6C59,24.6,59.1,24.6,59,24.6c0.1,0,0.2,0,0.2,0c0,0,0,0.1,0,0.1c-0.2,0.4-0.5,0.7-0.8,0.9
			c-0.3,0.2-0.6,0.3-0.8,0.3c0,0-0.1,0-0.1,0c0,0-0.1,0-0.1,0c-0.2,0.2-0.4,0.3-0.6,0.5s-0.4,0.2-0.6,0.2c-0.1,0-0.2,0-0.3-0.1
			c-0.1-0.1-0.2-0.1-0.2-0.2c-0.1,0.2-0.2,0.5-0.3,0.7c-0.1,0.2-0.2,0.4-0.2,0.6S55.1,27.9,55,28c0,0.1-0.1,0.2-0.1,0.2
			c0,0.1,0,0.1-0.1,0.1c-0.1,0-0.1,0-0.2-0.1c-0.1,0-0.1-0.1-0.2-0.1c-0.1-0.1-0.1-0.1-0.2-0.2c0-0.1-0.1-0.1-0.1-0.2
			c0-0.1,0-0.3,0.1-0.5s0.2-0.6,0.3-0.9s0.3-0.7,0.4-1.1c0.2-0.4,0.3-0.7,0.5-1c0.2-0.3,0.3-0.6,0.4-0.8c0.1-0.2,0.2-0.3,0.3-0.3
			c0.1,0,0.2,0,0.2,0.1c0.1,0,0.2,0.1,0.2,0.2s0.1,0.1,0.1,0.2c0,0.1,0,0.1,0,0.2c-0.1,0.1-0.2,0.2-0.3,0.5c0.1-0.1,0.2-0.3,0.3-0.4
			s0.2-0.2,0.3-0.3s0.2-0.2,0.3-0.2c0.1-0.1,0.2-0.1,0.2-0.1c0.1,0,0.2,0,0.3,0.1c0.1,0.1,0.2,0.1,0.2,0.2c0.1,0.1,0.1,0.2,0.2,0.2
			s0.1,0.2,0.1,0.2c0,0.2-0.1,0.4-0.2,0.7c-0.1,0.3-0.3,0.5-0.5,0.8h0c0.2,0,0.4-0.1,0.6-0.2C58.6,25.1,58.8,24.9,59,24.6z M56,26.1
			c0.1,0,0.2,0,0.3-0.1c0.1-0.1,0.2-0.2,0.4-0.3c0-0.1,0-0.1,0-0.1c0-0.1,0-0.2,0.1-0.3c0.1-0.1,0.2-0.1,0.2-0.1c0.1,0,0.1,0,0.1,0
			c0.1-0.1,0.2-0.3,0.3-0.4c0.1-0.1,0.2-0.3,0.2-0.4c0.1-0.1,0.1-0.2,0.2-0.3c0-0.1,0.1-0.2,0.1-0.2c0-0.1,0-0.1,0-0.1
			c0,0-0.1,0-0.1,0c-0.1,0-0.2,0.1-0.3,0.2c-0.2,0.2-0.4,0.3-0.6,0.6c-0.2,0.2-0.4,0.5-0.6,0.8c-0.2,0.3-0.4,0.5-0.5,0.8
			C55.8,26.1,55.9,26.1,56,26.1z"/>
		<path class="st2" d="M62.3,24.6C62.3,24.6,62.4,24.6,62.3,24.6c0.1,0,0.2,0,0.2,0c0,0,0,0.1,0,0.1c-0.1,0.2-0.3,0.3-0.4,0.5
			s-0.3,0.4-0.5,0.6s-0.3,0.3-0.5,0.4c-0.2,0.1-0.3,0.2-0.4,0.2c0,0-0.1,0-0.1,0s-0.1-0.1-0.2-0.1s-0.1-0.1-0.2-0.2
			c0-0.1-0.1-0.1-0.1-0.2c0-0.1,0-0.2,0.1-0.3c0.1-0.1,0.1-0.3,0.2-0.4c-0.1,0.2-0.2,0.3-0.4,0.5c-0.1,0.2-0.3,0.3-0.4,0.4
			c-0.1,0.1-0.3,0.2-0.4,0.3c-0.1,0.1-0.2,0.1-0.3,0.1c-0.1,0-0.1,0-0.2-0.1c-0.1,0-0.1-0.1-0.2-0.2s-0.1-0.1-0.1-0.2
			c0-0.1,0-0.2,0-0.2c0-0.1,0-0.2,0.1-0.4s0.2-0.3,0.3-0.5s0.2-0.4,0.4-0.6s0.3-0.4,0.4-0.5c0.1-0.2,0.3-0.3,0.4-0.4
			c0.1-0.1,0.3-0.1,0.4-0.1c0.1,0,0.3,0,0.4,0.1c0.1,0.1,0.2,0.2,0.3,0.3c0.1,0.1,0.2,0.2,0.3,0.3s0.1,0.2,0.1,0.3c0,0,0,0,0,0v0
			c0,0,0,0.1-0.1,0.2c-0.1,0.1-0.1,0.3-0.2,0.4s-0.1,0.3-0.2,0.4s-0.1,0.2-0.1,0.3c0,0,0,0.1,0.1,0.1c0.1,0,0.2,0,0.2-0.1
			s0.2-0.1,0.3-0.2c0.1-0.1,0.2-0.2,0.3-0.3S62.2,24.8,62.3,24.6z M59.4,25.7c0,0,0.1,0,0.2-0.1c0.1-0.1,0.2-0.2,0.3-0.3
			c0.1-0.1,0.2-0.2,0.3-0.4s0.2-0.3,0.3-0.4c0.1-0.1,0.2-0.2,0.3-0.3c0.1-0.1,0.1-0.2,0.1-0.2c0-0.1,0-0.1,0-0.2
			c0-0.1-0.1-0.1-0.1-0.1c-0.1,0-0.1,0-0.2,0.1c-0.1,0.1-0.2,0.2-0.3,0.3c-0.1,0.1-0.2,0.2-0.3,0.4c-0.1,0.1-0.2,0.3-0.3,0.4
			c-0.1,0.1-0.2,0.3-0.2,0.4C59.4,25.5,59.4,25.6,59.4,25.7C59.4,25.7,59.4,25.7,59.4,25.7z"/>
		<path class="st2" d="M65.6,24.6C65.7,24.6,65.7,24.6,65.6,24.6c0.1,0,0.2,0,0.2,0c0,0,0,0.1,0,0.1c0,0,0,0.1-0.1,0.2
			c-0.1,0.1-0.1,0.2-0.2,0.3c-0.1,0.1-0.2,0.3-0.3,0.4s-0.2,0.3-0.4,0.4c-0.1,0.1-0.2,0.2-0.4,0.3c-0.1,0.1-0.2,0.1-0.3,0.1
			c0,0-0.1,0-0.2,0c-0.1,0-0.1-0.1-0.2-0.1s-0.1-0.1-0.2-0.2c0-0.1-0.1-0.1-0.1-0.2c0-0.1,0-0.3,0.1-0.5s0.2-0.5,0.3-0.8
			c0.1-0.3,0.3-0.6,0.4-1c-0.2,0.1-0.4,0.3-0.5,0.5c-0.2,0.2-0.4,0.5-0.5,0.8s-0.3,0.5-0.4,0.8c-0.1,0.2-0.2,0.4-0.3,0.5
			c0,0,0,0.1,0,0.1c0,0,0,0,0,0.1c0,0,0,0.1-0.1,0.1c0,0-0.1,0-0.2,0c-0.1,0-0.1-0.1-0.2-0.1c-0.1,0-0.1-0.1-0.2-0.2
			c0-0.1-0.1-0.1-0.1-0.2c0-0.1,0-0.2,0.1-0.3s0.1-0.3,0.2-0.5c0.1-0.2,0.2-0.4,0.2-0.6c0.1-0.2,0.2-0.4,0.2-0.5s0.1-0.3,0.2-0.4
			c0-0.1,0.1-0.2,0.1-0.3c0,0,0-0.1,0.1-0.1c0,0,0.1,0,0.2,0.1c0.1,0,0.1,0.1,0.2,0.2s0.1,0.1,0.2,0.2c0,0.1,0.1,0.1,0.1,0.2
			c0,0,0,0.2-0.1,0.4c0.1-0.1,0.2-0.3,0.3-0.4c0.1-0.1,0.2-0.2,0.3-0.3c0.1-0.1,0.2-0.2,0.3-0.2c0.1-0.1,0.2-0.1,0.2-0.1
			c0,0,0.1,0,0.2,0.1c0.1,0,0.1,0.1,0.2,0.1s0.1,0.1,0.2,0.2c0,0.1,0.1,0.1,0.1,0.2c0,0,0,0.1-0.1,0.2s-0.1,0.2-0.1,0.3
			c-0.1,0.1-0.1,0.3-0.2,0.4c-0.1,0.1-0.1,0.3-0.2,0.4c-0.1,0.1-0.1,0.2-0.1,0.3c0,0.1-0.1,0.2-0.1,0.2c0,0.1,0,0.1,0,0.1
			c0.1,0,0.2-0.1,0.3-0.2c0.1-0.1,0.2-0.2,0.4-0.3c0.1-0.1,0.2-0.2,0.3-0.4S65.6,24.7,65.6,24.6z"/>
		<path class="st2" d="M72.6,21c0.1,0,0.3,0,0.4,0.1c0.1,0.1,0.2,0.1,0.2,0.2c0.1,0.1,0.1,0.1,0.1,0.2c0,0.1,0,0.1-0.1,0.1
			c0,0-0.1,0-0.1,0s0,0-0.1,0c-0.1,0-0.2,0.1-0.4,0.2s-0.4,0.3-0.6,0.5c-0.2,0.2-0.4,0.5-0.7,0.7c-0.2,0.3-0.5,0.5-0.7,0.8
			c-0.2,0.3-0.4,0.5-0.6,0.8c-0.2,0.2-0.4,0.5-0.5,0.6c0.1,0.2,0.1,0.4,0.2,0.6c0.1,0.2,0.2,0.4,0.3,0.6s0.2,0.3,0.3,0.4
			s0.3,0.2,0.4,0.2c0,0,0.1,0,0.1,0c0,0,0,0,0.1,0c0,0,0,0,0,0.1c0,0,0,0.1-0.1,0.1c0,0.1-0.1,0.1-0.1,0.1c-0.1,0-0.1,0.1-0.2,0.1
			c-0.2,0-0.4-0.1-0.6-0.2c-0.2-0.1-0.3-0.2-0.5-0.4c-0.1-0.2-0.2-0.3-0.3-0.5c-0.1-0.2-0.2-0.3-0.2-0.4c-0.1,0.2-0.2,0.4-0.3,0.6
			c-0.1,0.2-0.2,0.3-0.3,0.5s-0.2,0.2-0.2,0.3c-0.1,0.1-0.1,0.1-0.1,0.1c-0.1,0-0.2,0-0.3-0.1c-0.1-0.1-0.2-0.2-0.3-0.3
			s-0.1-0.2-0.1-0.3c0-0.1,0-0.1,0.1-0.1c0.1,0,0.2-0.1,0.4-0.3c0.2-0.2,0.3-0.5,0.5-0.8c0.2-0.3,0.4-0.7,0.6-1.1s0.4-0.8,0.5-1.1
			s0.3-0.7,0.4-1c0.1-0.3,0.1-0.5,0.1-0.6c0-0.1-0.1-0.2-0.2-0.2c-0.2,0-0.4,0-0.6,0.1c-0.2,0.1-0.4,0.2-0.6,0.3
			c-0.2,0.1-0.4,0.3-0.6,0.5c-0.2,0.2-0.3,0.3-0.5,0.5c-0.1,0.2-0.2,0.3-0.3,0.5s-0.1,0.3-0.1,0.4c0,0.1,0,0.2,0,0.2
			c0,0,0,0.1,0.1,0.1s0.1,0,0.1,0.1c0,0,0,0,0,0.1c0,0.1,0,0.1-0.1,0.1c-0.1,0-0.1,0-0.2-0.1c-0.1,0-0.2-0.1-0.2-0.2
			c-0.1-0.1-0.1-0.2-0.2-0.3c-0.1-0.1-0.1-0.2-0.1-0.4c0-0.2,0.1-0.5,0.3-0.8s0.4-0.6,0.7-0.9c0.3-0.3,0.6-0.5,1-0.7
			c0.4-0.2,0.7-0.3,1.1-0.3c0.2,0,0.3,0,0.5,0.1s0.2,0.2,0.3,0.3s0.2,0.2,0.2,0.3c0,0.1,0.1,0.2,0.1,0.3c0,0.1,0,0.3-0.1,0.4
			c0,0.2-0.1,0.4-0.2,0.6c-0.1,0.2-0.2,0.4-0.3,0.7c-0.1,0.2-0.2,0.5-0.3,0.7c0.1-0.2,0.3-0.4,0.5-0.7c0.2-0.2,0.4-0.5,0.5-0.7
			c0.2-0.2,0.4-0.5,0.5-0.7c0.2-0.2,0.3-0.4,0.5-0.6c0.2-0.2,0.3-0.3,0.4-0.4C72.4,21.1,72.5,21,72.6,21z"/>
		<path class="st2" d="M74.7,24.6C74.7,24.6,74.8,24.6,74.7,24.6c0.1,0,0.2,0,0.2,0c0,0,0,0.1,0,0.1c-0.1,0.2-0.3,0.3-0.4,0.5
			s-0.3,0.4-0.4,0.6s-0.3,0.3-0.5,0.4s-0.3,0.2-0.4,0.2c0,0-0.1,0-0.1,0s-0.1-0.1-0.2-0.1s-0.1-0.1-0.2-0.2c0-0.1-0.1-0.1-0.1-0.2
			c0-0.1,0-0.2,0.1-0.3c0.1-0.1,0.1-0.3,0.2-0.4c-0.1,0.2-0.2,0.3-0.4,0.5c-0.1,0.2-0.3,0.3-0.4,0.4c-0.1,0.1-0.3,0.2-0.4,0.3
			c-0.1,0.1-0.2,0.1-0.3,0.1c-0.1,0-0.1,0-0.2-0.1c-0.1,0-0.1-0.1-0.2-0.2c0-0.1-0.1-0.1-0.1-0.2c0-0.1,0-0.2,0-0.2
			c0-0.1,0-0.2,0.1-0.4c0.1-0.2,0.2-0.3,0.3-0.5c0.1-0.2,0.2-0.4,0.4-0.6s0.3-0.4,0.4-0.5c0.2-0.2,0.3-0.3,0.4-0.4s0.3-0.1,0.4-0.1
			c0.1,0,0.3,0,0.4,0.1c0.1,0.1,0.2,0.2,0.3,0.3c0.1,0.1,0.2,0.2,0.3,0.3s0.1,0.2,0.1,0.3c0,0,0,0,0,0v0c0,0,0,0.1-0.1,0.2
			c-0.1,0.1-0.1,0.3-0.2,0.4s-0.1,0.3-0.2,0.4c-0.1,0.1-0.1,0.2-0.1,0.3c0,0,0,0.1,0.1,0.1c0.1,0,0.2,0,0.2-0.1s0.2-0.1,0.3-0.2
			c0.1-0.1,0.2-0.2,0.3-0.3C74.5,24.9,74.6,24.8,74.7,24.6z M71.8,25.7c0,0,0.1,0,0.2-0.1c0.1-0.1,0.2-0.2,0.3-0.3s0.2-0.2,0.3-0.4
			c0.1-0.1,0.2-0.3,0.3-0.4c0.1-0.1,0.2-0.2,0.3-0.3c0.1-0.1,0.1-0.2,0.1-0.2c0-0.1,0-0.1,0-0.2c0-0.1-0.1-0.1-0.1-0.1
			c-0.1,0-0.1,0-0.2,0.1c-0.1,0.1-0.2,0.2-0.3,0.3c-0.1,0.1-0.2,0.2-0.3,0.4s-0.2,0.3-0.3,0.4c-0.1,0.1-0.2,0.3-0.2,0.4
			C71.8,25.5,71.8,25.6,71.8,25.7C71.8,25.7,71.8,25.7,71.8,25.7z"/>
		<path class="st2" d="M75.5,25.7C75.5,25.7,75.5,25.7,75.5,25.7c0.1,0,0.2,0,0.3,0c0.1,0,0.1,0.1,0.2,0.1c0,0,0.1,0.1,0.1,0.1
			c0,0,0,0.1,0,0.1c-0.2,0.3-0.4,0.5-0.4,0.5c-0.1,0-0.2,0-0.2,0s-0.1-0.1-0.1-0.2c0,0,0-0.1,0-0.2s0-0.1,0-0.2c0-0.1,0-0.1,0.1-0.2
			C75.4,25.7,75.4,25.7,75.5,25.7z"/>
		<path class="st2" d="M77.2,25.7C77.2,25.7,77.2,25.7,77.2,25.7c0.1,0,0.2,0,0.3,0c0.1,0,0.1,0.1,0.2,0.1c0,0,0.1,0.1,0.1,0.1
			c0,0,0,0.1,0,0.1c-0.2,0.3-0.4,0.5-0.4,0.5c-0.1,0-0.2,0-0.2,0s-0.1-0.1-0.1-0.2c0,0,0-0.1,0-0.2s0-0.1,0-0.2c0-0.1,0-0.1,0.1-0.2
			C77.1,25.7,77.1,25.7,77.2,25.7z"/>
		<path class="st2" d="M78.9,25.7C78.9,25.7,78.9,25.7,78.9,25.7c0.1,0,0.2,0,0.3,0c0.1,0,0.1,0.1,0.2,0.1c0,0,0.1,0.1,0.1,0.1
			c0,0,0,0.1,0,0.1c-0.2,0.3-0.4,0.5-0.4,0.5c-0.1,0-0.2,0-0.2,0s-0.1-0.1-0.1-0.2c0,0,0-0.1,0-0.2s0-0.1,0-0.2c0-0.1,0-0.1,0.1-0.2
			C78.8,25.7,78.8,25.7,78.9,25.7z"/>
	</g>
</g>
</svg>
