<svg xmlns="http://www.w3.org/2000/svg" xmlns:xlink="http://www.w3.org/1999/xlink" viewBox="0 0 2276.88 562.63"><defs><style>.cls-1{fill:url(#linear-gradient);}.cls-2{fill:url(#linear-gradient-2);}.cls-3{fill:url(#linear-gradient-3);}.cls-4{fill:url(#linear-gradient-4);}.cls-5{fill:url(#linear-gradient-5);}.cls-6{fill:url(#linear-gradient-6);}.cls-7{fill:url(#linear-gradient-7);}.cls-8{fill:url(#linear-gradient-8);}</style><linearGradient id="linear-gradient" x1="3.91" y1="281.32" x2="2276.88" y2="281.32" gradientTransform="matrix(-1, 0, 0, 1, 2276.88, 0)" gradientUnits="userSpaceOnUse"><stop offset="0" stop-color="#2470a3"/><stop offset="1" stop-color="#2db9cd"/></linearGradient><linearGradient id="linear-gradient-2" x1="1675.28" y1="99.94" x2="2337.06" y2="363.43" gradientUnits="userSpaceOnUse"><stop offset="0" stop-color="#2db9cd"/><stop offset="1" stop-color="#2470a3"/></linearGradient><linearGradient id="linear-gradient-3" x1="1623.33" y1="230.41" x2="2285.12" y2="493.9" xlink:href="#linear-gradient-2"/><linearGradient id="linear-gradient-4" x1="1553.48" y1="405.84" x2="2215.27" y2="669.33" xlink:href="#linear-gradient-2"/><linearGradient id="linear-gradient-5" x1="1586.81" y1="322.12" x2="2248.6" y2="585.61" xlink:href="#linear-gradient-2"/><linearGradient id="linear-gradient-6" x1="1694.21" y1="52.4" x2="2355.99" y2="315.89" xlink:href="#linear-gradient-2"/><linearGradient id="linear-gradient-7" x1="1336.49" y1="422" x2="2276.88" y2="422" gradientTransform="matrix(-1, 0, 0, 1, 2276.88, 0)" xlink:href="#linear-gradient-2"/><linearGradient id="linear-gradient-8" x1="1640.69" y1="457.5" x2="2276.88" y2="457.5" gradientTransform="matrix(-1, 0, 0, 1, 2276.88, 0)" xlink:href="#linear-gradient-2"/></defs><g id="Layer_2" data-name="Layer 2"><g id="Layer_1-2" data-name="Layer 1"><rect class="cls-1" width="2272.97" height="562.63"/><path class="cls-2" d="M2163.21,39.29a461.28,461.28,0,0,0-45,55.72c-29.31,42.45-51.09,88.42-63.13,138.71-9.35,39.07-8.45,78.29-.15,117.43,10,47,29.18,90.06,55.29,130.28,15.43,23.76,34.73,44.4,52.19,67.39,2.21-2,4.28-3.61,6-5.52a488.24,488.24,0,0,0,66-94c17.15-31.59,30.28-64.66,37.2-100a276.51,276.51,0,0,0,3.58-83.85c-5-45.83-20.42-88.27-42.09-128.6-17.57-32.67-39.3-62.48-63.66-90.4C2167.37,44,2165.25,41.62,2163.21,39.29Z"/><path class="cls-3" d="M1796.69,191c.53,9.51.79,18.31,1.54,27.06A451.84,451.84,0,0,0,1819.39,321c12.54,38.07,29.56,73.94,54.38,105.7a274.34,274.34,0,0,0,65.53,60.1c28.62,18.94,59.41,32.87,92,43.13,37,11.64,75,18.16,113.6,21.16,3.26.25,6.57-.22,10.84-.4-1.31-2-1.91-3.16-2.68-4.14-20-25.39-41.22-49.87-57.81-77.72-24-40.27-41-83.3-49-129.67a231.3,231.3,0,0,1-2.87-53.2c.42-6.91-2.17-11.37-7.39-15.32a358,358,0,0,0-84.73-48,448.21,448.21,0,0,0-68.69-20.86c-25.78-5.65-52-8.67-78.27-10.75C1802.1,190.88,1799.84,191,1796.69,191Z"/><path class="cls-4" d="M1648,502.18a28.88,28.88,0,0,0,2.89,4.21,525.19,525.19,0,0,0,68.47,56.24h428.7c.55-.28,1.08-.57,1.62-.87A23.74,23.74,0,0,0,2153,559c-.14-.36-.27-.73-.41-1.09-3.05-.23-6.11-.57-9.17-.67-33.12-1.09-65.41-7.46-97.24-16-40.82-11-79.36-27.42-114.22-51.67A270.1,270.1,0,0,1,1887.1,450c-3.2-3.49-6.43-5.67-11.62-5-36.81,4.5-72.21,13.77-105.62,30.14-22.13,10.84-45,19.62-69.15,24.94-16.3,3.59-32.63,3.91-49.11,2.31C1650.67,502.27,1649.74,502.26,1648,502.18Z"/><path class="cls-5" d="M1701.55,369c1.53,16.73,7.07,31.93,13.51,46.88,7.87,18.27,18.9,34.6,31.13,50.15,5.44,6.91,5.59,6.77,13.42,3.11a346.43,346.43,0,0,1,90.76-28.6c5.85-1,11.76-1.5,17.62-2.38a17.9,17.9,0,0,0,3.82-1.52,14.57,14.57,0,0,0-1.62-3.5c-24.63-28.58-40.78-61.92-54.26-96.73-3.67-9.48-3.42-9.93-13.35-8.78-30.08,3.48-59.08,10.64-85.3,26.53a120.5,120.5,0,0,0-13.39,9.34C1702.52,364.6,1702.3,367.12,1701.55,369Z"/><path class="cls-6" d="M2041,264.52c.51-2.68,1.07-4.75,1.28-6.86,3.49-34.14,13.17-66.58,26.85-97.92,1.84-4.21,3.59-8.47,5.61-12.59,1.13-2.29.74-3.92-1.19-5.33-10.05-7.32-19.7-15.31-30.27-21.81-19.67-12.11-41.06-20-64.22-22.4-1.32-.14-2.66-.11-4-.25-4.45-.46-7.54,1.26-9.86,5.18-6.1,10.29-13.33,20-18.5,30.73-8.75,18.14-12.31,37.88-14.87,57.75-.33,2.52-.64,5-.84,7.57-.44,5.58-.06,6.18,5.1,7.95a320.44,320.44,0,0,1,61.81,28.6c13.43,8.14,26,17.66,39,26.56Z"/><path class="cls-7" d="M0,512.75v49.88H940.39C843.49,394.53,662,281.37,454,281.37,267.35,281.37,102,372.53,0,512.75Z"/><path class="cls-8" d="M0,531.19v31.44H636.19C579.93,438.62,455,352.37,310,352.37,177.56,352.37,61.92,424.28,0,531.19Z"/></g></g></svg>