<svg xmlns="http://www.w3.org/2000/svg" xmlns:xlink="http://www.w3.org/1999/xlink" viewBox="0 0 2276.88 562.63"><defs><style>.cls-1{opacity:0.8;}.cls-2{fill:url(#linear-gradient);}.cls-3{opacity:0.3;}.cls-4{fill:#fff;}.cls-5{fill:url(#linear-gradient-2);}.cls-6{fill:url(#linear-gradient-3);}</style><linearGradient id="linear-gradient" x1="3.91" y1="281.32" x2="2276.88" y2="281.32" gradientUnits="userSpaceOnUse"><stop offset="0" stop-color="#bcbec0"/><stop offset="1" stop-color="#e6e7e8"/></linearGradient><linearGradient id="linear-gradient-2" x1="1336.49" y1="422" x2="2276.88" y2="422" xlink:href="#linear-gradient"/><linearGradient id="linear-gradient-3" x1="1640.69" y1="457.5" x2="2276.88" y2="457.5" gradientUnits="userSpaceOnUse"><stop offset="0" stop-color="#e6e7e8"/><stop offset="1" stop-color="#bcbec0"/></linearGradient></defs><g id="Layer_2" data-name="Layer 2"><g id="Layer_1-2" data-name="Layer 1"><g class="cls-1"><rect class="cls-2" x="3.91" width="2272.97" height="562.63"/><g class="cls-3"><path class="cls-4" d="M113.67,39.29a460.41,460.41,0,0,1,45,55.72c29.3,42.45,51.08,88.42,63.12,138.71,9.35,39.07,8.45,78.29.15,117.43-10,47-29.18,90.06-55.29,130.28-15.43,23.76-34.72,44.4-52.19,67.39-2.21-2-4.28-3.61-6-5.52a488.24,488.24,0,0,1-66-94c-17.15-31.59-30.28-64.66-37.2-100a276.83,276.83,0,0,1-3.58-83.85c5-45.83,20.42-88.27,42.1-128.6,17.56-32.67,39.29-62.48,63.65-90.4C109.51,44,111.63,41.62,113.67,39.29Z"/><path class="cls-4" d="M480.19,191c-.52,9.51-.79,18.31-1.54,27.06A451.84,451.84,0,0,1,457.49,321C445,359.08,427.94,395,403.11,426.71a274.34,274.34,0,0,1-65.53,60.1c-28.62,18.94-59.41,32.87-92,43.13-37,11.64-75,18.16-113.6,21.16-3.26.25-6.57-.22-10.84-.4,1.31-2,1.91-3.16,2.69-4.14,20-25.39,41.21-49.87,57.81-77.72,24-40.27,41-83.3,49-129.67a231.3,231.3,0,0,0,2.87-53.2c-.41-6.91,2.17-11.37,7.4-15.32a358,358,0,0,1,84.72-48,448,448,0,0,1,68.7-20.86c25.78-5.65,52-8.67,78.26-10.75C474.78,190.88,477,191,480.19,191Z"/><path class="cls-4" d="M628.87,502.18a28.88,28.88,0,0,1-2.89,4.21,525.19,525.19,0,0,1-68.47,56.24H128.81c-.55-.28-1.08-.57-1.62-.87a23.74,23.74,0,0,1-3.33-2.74c.14-.36.27-.73.41-1.09,3-.23,6.11-.57,9.17-.67,33.12-1.09,65.41-7.46,97.24-16,40.82-11,79.36-27.42,114.22-51.67A270.1,270.1,0,0,0,389.78,450c3.2-3.49,6.43-5.67,11.62-5,36.81,4.5,72.21,13.77,105.62,30.14,22.13,10.84,45,19.62,69.15,24.94,16.3,3.59,32.63,3.91,49.11,2.31C626.21,502.27,627.14,502.26,628.87,502.18Z"/><path class="cls-4" d="M575.33,369c-1.52,16.73-7.07,31.93-13.51,46.88-7.87,18.27-18.9,34.6-31.13,50.15-5.44,6.91-5.58,6.77-13.41,3.11a346.62,346.62,0,0,0-90.77-28.6c-5.84-1-11.76-1.5-17.62-2.38a17.9,17.9,0,0,1-3.82-1.52,14.22,14.22,0,0,1,1.63-3.5c24.62-28.58,40.78-61.92,54.25-96.73,3.67-9.48,3.42-9.93,13.35-8.78,30.08,3.48,59.08,10.64,85.3,26.53A120.5,120.5,0,0,1,573,363.5C574.36,364.6,574.59,367.12,575.33,369Z"/><path class="cls-4" d="M235.9,264.52c-.51-2.68-1.07-4.75-1.28-6.86-3.49-34.14-13.17-66.58-26.85-97.92-1.84-4.21-3.59-8.47-5.61-12.59-1.13-2.29-.74-3.92,1.19-5.33,10.05-7.32,19.71-15.31,30.27-21.81,19.68-12.11,41.06-20,64.22-22.4,1.32-.14,2.66-.11,4-.25,4.45-.46,7.54,1.26,9.87,5.18,6.09,10.29,13.32,20,18.49,30.73,8.75,18.14,12.32,37.88,14.88,57.75.32,2.52.63,5,.83,7.57.44,5.58.06,6.18-5.1,7.95A320.44,320.44,0,0,0,279,235.14c-13.43,8.14-26,17.66-39,26.56Z"/></g><path class="cls-5" d="M2276.88,512.75v49.88H1336.49c96.9-168.1,278.43-281.26,486.39-281.26C2009.53,281.37,2174.89,372.53,2276.88,512.75Z"/><path class="cls-6" d="M2276.88,531.19v31.44H1640.69c56.26-124,181.15-210.26,326.19-210.26C2099.32,352.37,2215,424.28,2276.88,531.19Z"/></g></g></g></svg>